<svg width="57" height="65" viewBox="0 0 57 65" fill="none" xmlns="http://www.w3.org/2000/svg">
<path d="M8.12228 0C7.55372 0 7.06638 0.0812228 6.57904 0.243668C3.41136 0.89345 0.89345 3.41136 0.243668 6.57904C0 7.06638 0 7.55372 0 8.12228V52.7948C0 59.5363 5.44193 64.9782 12.1834 64.9782H56.8559V56.8559H12.1834C9.90918 56.8559 8.12228 55.069 8.12228 52.7948C8.12228 50.5206 9.90918 48.7337 12.1834 48.7337H56.8559V4.06114C56.8559 1.7869 55.069 0 52.7948 0H48.7337V24.3668L40.6114 16.2446L32.4891 24.3668V0H8.12228Z" fill="#371952"/>
</svg>
