<svg width="54" height="51" viewBox="0 0 54 51" fill="none" xmlns="http://www.w3.org/2000/svg">
<g id="&#240;&#159;&#166;&#134; icon &#34;html5&#34;">
<path id="Vector" d="M5.42841 45.6075L0.610229 0.61499H53.6102L48.792 45.6075L27.0515 50.6936" fill="#E34F26"/>
<path id="Vector_2" d="M27.1689 46.7812L44.6789 42.771L48.792 4.23395H27.1689" fill="#EF652A"/>
<path id="Vector_3" d="M27.1691 20.9594H18.3553L17.7677 15.2864H27.1691V9.80908H10.4817L12.2444 26.5345H27.1691V20.9594ZM27.0515 35.3374L19.648 33.6747L19.1779 29.2732H12.597L13.4196 37.9783L27.0515 41.1082V35.3374Z" fill="#EBEBEB"/>
<path id="Vector_4" d="M27.0515 20.9594V26.5345H35.2777L34.4551 33.6747L27.0515 35.3374V41.1082L40.6834 37.9783L42.5637 20.9594H27.0515ZM27.0515 9.80908V15.2864H43.1513L43.7389 9.80908H27.0515Z" fill="white"/>
</g>
</svg>
