<svg width="55" height="53" viewBox="0 0 55 53" fill="none" xmlns="http://www.w3.org/2000/svg">
<g id="&#240;&#159;&#166;&#134; icon &#34;Javascript (JS)&#34;">
<path id="Vector" d="M0 0.083313H55V52.6936H0V0.083313Z" fill="#F7DF1E"/>
<path id="Vector_2" d="M14.4615 44.0483L18.6705 41.6118C19.4825 42.9889 20.2211 44.1541 21.9929 44.1541C23.6913 44.1541 24.7621 43.5186 24.7621 41.0467V24.2365H29.9307V41.1166C29.9307 46.2374 26.7927 48.5682 22.2145 48.5682C18.0798 48.5682 15.6797 46.5198 14.4614 44.0479" fill="black"/>
<path id="Vector_3" d="M32.7382 43.5185L36.9466 41.1877C38.0545 42.9183 39.4943 44.1896 42.0416 44.1896C44.1832 44.1896 45.5489 43.1654 45.5489 41.7527C45.5489 40.0576 44.146 39.4572 41.7831 38.4687L40.4913 37.9386C36.7622 36.4203 34.2885 34.5133 34.2885 30.4873C34.2885 26.7792 37.242 23.9539 41.8572 23.9539C45.143 23.9539 47.5058 25.0487 49.2039 27.9093L45.1797 30.3812C44.2936 28.8628 43.334 28.2626 41.8572 28.2626C40.3435 28.2626 39.3836 29.1807 39.3836 30.3812C39.3836 31.8645 40.3435 32.465 42.5585 33.3833L43.8505 33.913C48.244 35.7142 50.7177 37.5503 50.7177 41.6821C50.7177 46.1321 47.0627 48.5686 42.1525 48.5686C37.353 48.5686 34.2516 46.3792 32.7382 43.5185Z" fill="black"/>
</g>
</svg>
