<svg width="52" height="57" viewBox="0 0 52 57" fill="none" xmlns="http://www.w3.org/2000/svg">
<g id="&#240;&#159;&#166;&#134; icon &#34;Python&#34;">
<path id="Vector" d="M25.8125 0C12.6117 1.03098e-06 13.4361 6.27406 13.4361 6.27406L13.4508 12.7739H26.048V14.7255H8.44721C8.44721 14.7255 0 13.6756 0 28.2736C-9.42738e-07 42.8716 7.37291 42.3539 7.37291 42.3539H11.7731V35.5799C11.7731 35.5799 11.5359 27.4994 19.0283 27.4994H31.5225C31.5225 27.4994 38.5422 27.6238 38.5422 20.0641V7.56436C38.5422 7.56435 39.608 0 25.8125 0ZM18.8664 4.37087C20.1197 4.37087 21.1327 5.48108 21.1327 6.85469C21.1327 8.2283 20.1197 9.33851 18.8664 9.33851C17.6131 9.33851 16.6001 8.2283 16.6001 6.85469C16.6001 5.48108 17.6131 4.37087 18.8664 4.37087Z" fill="url(#paint0_linear_4_135)"/>
<path id="Vector_2" d="M26.1875 56.6936C39.3883 56.6936 38.564 50.4195 38.564 50.4195L38.5493 43.9196H25.952V41.9681H43.5528C43.5528 41.9681 52 43.018 52 28.42C52 13.8219 44.6271 14.3396 44.6271 14.3396H40.2269V21.1137C40.2269 21.1137 40.4641 29.1941 32.9717 29.1941H20.4775C20.4775 29.1941 13.4578 29.0698 13.4578 36.6295V49.1292C13.4578 49.1292 12.392 56.6936 26.1875 56.6936ZM33.1336 52.3227C31.8803 52.3227 30.8673 51.2125 30.8673 49.8389C30.8673 48.4653 31.8803 47.355 33.1336 47.355C34.387 47.355 35.4 48.4653 35.4 49.8389C35.4 51.2125 34.387 52.3227 33.1336 52.3227Z" fill="url(#paint1_linear_4_135)"/>
</g>
<defs>
<linearGradient id="paint0_linear_4_135" x1="1279.31" y1="1300.35" x2="8469.87" y2="7770.45" gradientUnits="userSpaceOnUse">
<stop stop-color="#387EB8"/>
<stop offset="1" stop-color="#366994"/>
</linearGradient>
<linearGradient id="paint1_linear_4_135" x1="1901.65" y1="2237.06" x2="9591.18" y2="8843.78" gradientUnits="userSpaceOnUse">
<stop stop-color="#FFE052"/>
<stop offset="1" stop-color="#FFC331"/>
</linearGradient>
</defs>
</svg>
