<svg width="63" height="57" viewBox="0 0 63 57" fill="none" xmlns="http://www.w3.org/2000/svg">
<g id="&#240;&#159;&#166;&#134; icon &#34;react&#34;">
<path id="Vector" d="M51.4782 19.0434C50.8287 18.8198 50.1557 18.6083 49.4627 18.4082C49.5766 17.9434 49.6811 17.4846 49.7741 17.0336C51.2998 9.62767 50.3022 3.66144 46.8959 1.69711C43.6296 -0.18643 38.288 1.77746 32.8931 6.47243C32.3743 6.9239 31.8541 7.40189 31.3341 7.90283C30.9876 7.57139 30.6417 7.2511 30.2966 6.94474C24.6427 1.92457 18.9755 -0.190999 15.5725 1.77902C12.3094 3.66802 11.343 9.27684 12.7164 16.2954C12.849 16.9734 13.004 17.6657 13.1793 18.3696C12.3772 18.5972 11.6029 18.84 10.862 19.0982C4.23336 21.4092 0 25.0312 0 28.7881C0 32.6683 4.54452 36.5602 11.4488 38.9201C11.9936 39.1063 12.559 39.2824 13.1416 39.4496C12.9525 40.2108 12.788 40.9569 12.6499 41.6845C11.3405 48.5813 12.3631 54.0576 15.6175 55.9347C18.979 57.8732 24.6206 55.8806 30.1141 51.0787C30.5483 50.6991 30.984 50.2965 31.4206 49.8746C31.9864 50.4195 32.5513 50.9351 33.1132 51.4188C38.4343 55.9977 43.6897 57.8467 46.9411 55.9644C50.2993 54.0204 51.3907 48.1375 49.9738 40.98C49.8656 40.4334 49.7396 39.875 49.5982 39.3066C49.9944 39.1894 50.3833 39.0685 50.7626 38.9428C57.9402 36.5647 62.6102 32.7202 62.6102 28.7881C62.6102 25.0176 58.2404 21.3712 51.4782 19.0434ZM49.9214 36.404C49.579 36.5173 49.2278 36.6269 48.8698 36.7331C48.0774 34.2246 47.008 31.5571 45.6993 28.8012C46.9482 26.1109 47.9762 23.4775 48.7464 20.9853C49.3869 21.1706 50.0085 21.3661 50.6076 21.5724C56.4014 23.5669 59.9356 26.5159 59.9356 28.7881C59.9356 31.2085 56.1188 34.3505 49.9214 36.404ZM47.3499 41.4995C47.9765 44.6644 48.0659 47.5259 47.6509 49.7628C47.278 51.7729 46.5281 53.113 45.6009 53.6497C43.6277 54.7918 39.4082 53.3072 34.8576 49.3913C34.3359 48.9424 33.8104 48.463 33.2833 47.9557C35.0475 46.0263 36.8106 43.7832 38.5315 41.2921C41.5582 41.0235 44.4178 40.5844 47.011 39.9849C47.1387 40.5002 47.2522 41.0055 47.3499 41.4995ZM21.3452 53.4523C19.4175 54.1332 17.8821 54.1527 16.954 53.6175C14.979 52.4784 14.158 48.0815 15.2779 42.1833C15.4062 41.5078 15.5589 40.814 15.7349 40.1047C18.2997 40.6719 21.1383 41.08 24.1723 41.326C25.9047 43.7636 27.7188 46.0042 29.547 47.9661C29.1475 48.3517 28.7497 48.7188 28.354 49.0647C25.9249 51.1881 23.4906 52.6946 21.3452 53.4523ZM12.3138 36.3892C9.26089 35.3457 6.73966 33.9895 5.01148 32.5096C3.4586 31.1798 2.67458 29.8595 2.67458 28.7881C2.67458 26.5083 6.07355 23.6004 11.7424 21.6239C12.4303 21.384 13.1503 21.158 13.8976 20.9457C14.681 23.4943 15.7088 26.1588 16.9491 28.8532C15.6927 31.5876 14.6504 34.2947 13.8592 36.8731C13.3265 36.7199 12.8104 36.5588 12.3138 36.3892ZM15.3412 15.7818C14.1646 9.76843 14.9461 5.23216 16.9125 4.09385C19.0071 2.88122 23.6389 4.61018 28.5207 8.94485C28.8327 9.2219 29.146 9.51188 29.4601 9.81189C27.641 11.7652 25.8435 13.989 24.1265 16.4122C21.1819 16.6852 18.3632 17.1236 15.7716 17.7107C15.6087 17.0553 15.4644 16.4114 15.3412 15.7818ZM42.3485 22.4506C41.7289 21.3805 41.0929 20.3357 40.4445 19.3194C42.4422 19.5719 44.3562 19.9072 46.1535 20.3174C45.6139 22.0468 44.9414 23.855 44.1496 25.7087C43.5817 24.6304 42.981 23.5433 42.3485 22.4506ZM31.335 11.7234C32.5687 13.06 33.8042 14.5522 35.0194 16.1713C33.7948 16.1135 32.5551 16.0834 31.3051 16.0834C30.067 16.0834 28.8364 16.1128 27.6194 16.1696C28.8358 14.5656 30.082 13.0753 31.335 11.7234ZM20.251 22.4691C19.6321 23.5422 19.0426 24.6234 18.4836 25.7067C17.7047 23.8595 17.0383 22.043 16.494 20.2891C18.2804 19.8893 20.1853 19.5625 22.1703 19.3147C21.5127 20.3404 20.8715 21.3931 20.251 22.4691ZM22.2274 38.4523C20.1766 38.2235 18.2431 37.9135 16.4571 37.5248C17.0101 35.7395 17.6912 33.8843 18.4866 31.9973C19.047 33.0798 19.6389 34.1615 20.2615 35.2369C20.8958 36.3325 21.553 37.4058 22.2274 38.4523ZM31.409 46.0414C30.1413 44.6737 28.8768 43.1607 27.6419 41.5333C28.8407 41.5803 30.0629 41.6044 31.3051 41.6044C32.5813 41.6044 33.8428 41.5756 35.0846 41.5203C33.8654 43.1771 32.6343 44.6924 31.409 46.0414ZM44.1752 31.9011C45.012 33.8085 45.7175 35.6541 46.2776 37.4089C44.4622 37.823 42.5023 38.1566 40.4372 38.4044C41.0871 37.3744 41.7287 36.3117 42.3592 35.2185C42.997 34.1126 43.6026 33.0049 44.1752 31.9011ZM40.0423 33.8823C39.0636 35.5793 38.0588 37.1993 37.0388 38.7284C35.1809 38.8612 33.2614 38.9297 31.3051 38.9297C29.3567 38.9297 27.4615 38.8692 25.6364 38.7507C24.5753 37.2015 23.5486 35.5767 22.5762 33.8969C21.6063 32.2217 20.7138 30.5323 19.9049 28.8523C20.7136 27.1685 21.6039 25.4772 22.5682 23.805L22.568 23.8053C23.5349 22.1286 24.5525 20.5118 25.6039 18.9723C27.4659 18.8315 29.3753 18.7581 31.305 18.7581C33.2434 18.7581 35.1553 18.8321 37.0168 18.974C38.0521 20.5023 39.0628 22.1139 40.0335 23.7908C41.0152 25.4866 41.9171 27.1666 42.7326 28.8143C41.9195 30.4904 41.0197 32.1873 40.0423 33.8823ZM45.5599 4.01428C47.6565 5.22335 48.4718 10.0995 47.1545 16.4937C47.0705 16.9017 46.9759 17.3173 46.8731 17.7384C44.2756 17.1391 41.4549 16.6931 38.5017 16.416C36.7813 13.9661 34.9985 11.7389 33.209 9.81067C33.6902 9.34783 34.1706 8.90651 34.649 8.49004C39.2713 4.46742 43.5915 2.87921 45.5599 4.01428ZM31.3051 23.1973C34.3928 23.1973 36.896 25.7003 36.896 28.7881C36.896 31.8758 34.3928 34.379 31.3051 34.379C28.2174 34.379 25.7142 31.8758 25.7142 28.7881C25.7142 25.7003 28.2174 23.1973 31.3051 23.1973Z" fill="#00D8FF"/>
</g>
</svg>
